<?xml version="1.0" encoding="utf-8"?>
<!-- Generator: Adobe Illustrator 16.0.3, SVG Export Plug-In . SVG Version: 6.00 Build 0)  -->
<!DOCTYPE svg PUBLIC "-//W3C//DTD SVG 1.1//EN" "http://www.w3.org/Graphics/SVG/1.1/DTD/svg11.dtd">
<svg version="1.1" id="Ebene_2" xmlns="http://www.w3.org/2000/svg" xmlns:xlink="http://www.w3.org/1999/xlink" x="0px" y="0px"
	 width="1024px" height="768px" viewBox="0 0 1024 768" enable-background="new 0 0 1024 768" xml:space="preserve">
<g id="Ebene_1-2">
	<g>
		<path fill="#FFFFFF" d="M136.659,49.171c0,0-19.469,339.744,0,452.928c38.918,226.272,320.275,245.453,376.896,254.496V11.424
			L136.659,49.171z M273.479,261.139c0-68.198,36.441-103.181,84.422-103.181c24.902,0,44.006,11.539,53.049,29.587h0.71V71.001
			h57.37v284.313h-54.854v-28.512h-0.71c-10.119,16.953-27.418,33.542-57.734,33.542c-51.226,0-82.253-32.102-82.253-99.225V261.139
			z M396.493,651.686c-57.715,0-82.252-27.053-84.787-61.689h52.685c0.729,13.709,9.753,24.902,32.467,24.902
			c18.394,0,30.663-7.219,30.663-21.293c0-11.539-5.05-17.318-23.098-19.833l-31.027-4.32c-36.077-5.05-56.64-22.732-56.64-57.734
			c0-35.001,25.267-63.514,80.102-63.514c50.516,0,75.398,24.538,77.933,58.445h-50.515c-1.075-12.27-10.1-22.004-27.783-22.004
			s-27.053,8.659-27.053,20.199c0,10.828,5.76,17.318,22.368,19.487l32.832,4.34c35.367,4.685,55.93,22.003,55.93,57.005
			c0,42.931-35.001,66.028-84.077,66.028V651.686z"/>
		<path fill="#FFFFFF" d="M412.391,273.043v-23.098c0-33.907-15.168-53.03-38.976-53.03c-25.613,0-41.491,20.198-41.491,62.419
			c0,39.321,11.904,62.419,40.051,62.419C398.317,321.753,412.391,300.825,412.391,273.043z"/>
		<path fill="#FFFFFF" d="M678.118,231.187c-1.805-20.563-11.539-35.712-33.196-35.712c-29.952,0-38.977,30.298-38.977,62.42
			c0,29.951,6.125,62.783,38.611,62.783c25.248,0,34.272-18.394,35.002-37.171h55.564C733.684,334.387,695.437,360,644.557,360
			c-62.419,0-97.421-38.247-97.421-101.376c0-63.13,37.536-101.396,97.786-101.396c51.59,0,88.031,25.268,89.472,73.958H678.118z"/>
		<path fill="#FFFFFF" d="M791.744,136.665v25.248h-27.782V201.6h27.782v153.696h55.91V201.6h37.901v-39.687h-37.901v-23.098
			c0-22.003,9.024-28.857,25.978-28.857c8.659,0,14.804,0.729,15.879,1.075V70.983c-1.805-0.365-13.345-2.17-28.147-2.17
			c-41.856,0-69.619,16.608-69.619,67.834V136.665z"/>
		<path fill="#FFFFFF" d="M642.771,651.322c-62.42,0-95.616-40.052-95.616-102.105c0-62.055,35.366-101.03,96.346-101.03
			c65.299,0,92.717,42.931,92.717,99.59v15.149H604.89c2.516,34.637,15.514,49.805,39.687,49.805
			c22.732,0,29.933-11.194,33.542-22.733h56.275c-5.76,37.518-39.321,61.325-91.642,61.325H642.771z M677.772,527.558
			c-1.805-27.417-12.633-43.66-34.271-43.66c-23.463,0-35.731,16.589-38.611,46.176h72.864v-2.534L677.772,527.558z"/>
		<path fill="#FFFFFF" d="M829.99,548.87c0-32.122,9.024-62.419,38.977-62.419c9.926,0,17.261,3.302,22.56,8.735
			c1.882-12.691,3.36-27.629,4.493-44.371c-8.41-1.728-17.453-2.611-27.034-2.611c-60.249,0-97.785,38.611-97.785,101.396
			c0,43.564,16.665,75.264,47.501,90.739c10.713-10.561,20.659-22.1,29.587-34.752c-14.899-10.849-18.278-34.541-18.278-56.698
			L829.99,548.87z"/>
	</g>
</g>
</svg>
