<?xml version="1.0" encoding="UTF-8"?><svg id="Ebene_2" xmlns="http://www.w3.org/2000/svg" xmlns:xlink="http://www.w3.org/1999/xlink" viewBox="0 0 400 400"><defs><style>.cls-1{clip-path:url(#clippath);}.cls-2{fill:none;}.cls-2,.cls-3{stroke-width:0px;}</style><clipPath id="clippath"><rect class="cls-2" width="400" height="400"/></clipPath></defs><g id="Ebene_1-2"><g class="cls-1"><path class="cls-3" d="m4.51,25.61s-10.14,176.95,0,235.9c20.27,117.85,166.81,127.84,196.3,132.55V5.95L4.51,25.61Zm71.26,110.4c0-35.52,18.98-53.74,43.97-53.74,12.97,0,22.92,6.01,27.63,15.41h.37v-60.7h29.88v148.08h-28.57v-14.85h-.37c-5.27,8.83-14.28,17.47-30.07,17.47-26.68,0-42.84-16.72-42.84-51.68Zm64.07,203.41c-30.06,0-42.84-14.09-44.16-32.13h27.44c.38,7.14,5.08,12.97,16.91,12.97,9.58,0,15.97-3.76,15.97-11.09,0-6.01-2.63-9.02-12.03-10.33l-16.16-2.25c-18.79-2.63-29.5-11.84-29.5-30.07s13.16-33.08,41.72-33.08c26.31,0,39.27,12.78,40.59,30.44h-26.31c-.56-6.39-5.26-11.46-14.47-11.46s-14.09,4.51-14.09,10.52c0,5.64,3,9.02,11.65,10.15l17.1,2.26c18.42,2.44,29.13,11.46,29.13,29.69,0,22.36-18.23,34.39-43.79,34.39Z"/><path class="cls-3" d="m148.12,142.21v-12.03c0-17.66-7.9-27.62-20.3-27.62-13.34,0-21.61,10.52-21.61,32.51,0,20.48,6.2,32.51,20.86,32.51,13.72,0,21.05-10.9,21.05-25.37Z"/><path class="cls-3" d="m286.52,120.41c-.94-10.71-6.01-18.6-17.29-18.6-15.6,0-20.3,15.78-20.3,32.51,0,15.6,3.19,32.7,20.11,32.7,13.15,0,17.85-9.58,18.23-19.36h28.94c-.75,26.5-20.67,39.84-47.17,39.84-32.51,0-50.74-19.92-50.74-52.8s19.55-52.81,50.93-52.81c26.87,0,45.85,13.16,46.6,38.52h-29.31Z"/><path class="cls-3" d="m345.7,71.18v13.15h-14.47v20.67h14.47v80.05h29.12v-80.05h19.74v-20.67h-19.74v-12.03c0-11.46,4.7-15.03,13.53-15.03,4.51,0,7.71.38,8.27.56v-20.86c-.94-.19-6.95-1.13-14.66-1.13-21.8,0-36.26,8.65-36.26,35.33Z"/><path class="cls-3" d="m268.11,339.23c-32.51,0-49.8-20.86-49.8-53.18s18.42-52.62,50.18-52.62c34.01,0,48.29,22.36,48.29,51.87v7.89h-68.4c1.31,18.04,8.08,25.94,20.67,25.94,11.84,0,15.59-5.83,17.47-11.84h29.31c-3,19.54-20.48,31.94-47.73,31.94Zm18.23-64.46c-.94-14.28-6.58-22.74-17.85-22.74-12.22,0-18.61,8.64-20.11,24.05h37.95v-1.32Z"/><path class="cls-3" d="m365.62,285.87c0-16.73,4.7-32.51,20.3-32.51,5.17,0,8.99,1.72,11.75,4.55.98-6.61,1.75-14.39,2.34-23.11-4.38-.9-9.09-1.36-14.08-1.36-31.38,0-50.93,20.11-50.93,52.81,0,22.69,8.68,39.2,24.74,47.26,5.58-5.5,10.76-11.51,15.41-18.1-7.76-5.65-9.52-17.99-9.52-29.53Z"/></g></g></svg>